<mxfile host="app.diagrams.net" agent="Mozilla/5.0 (Windows NT 10.0; Win64; x64) AppleWebKit/537.36 (KHTML, like Gecko) Chrome/131.0.0.0 Safari/537.36" version="25.0.1">
  <diagram name="1 oldal" id="RojwmhxlP2w9OfqYgh-x">
    <mxGraphModel dx="2589" dy="4328" grid="1" gridSize="10" guides="1" tooltips="1" connect="1" arrows="1" fold="1" page="1" pageScale="1" pageWidth="827" pageHeight="1169" math="0" shadow="0">
      <root>
        <mxCell id="0" />
        <mxCell id="1" parent="0" />
        <mxCell id="tt8EQiCurOOYMXS-OqXN-2" value="Hibajegyrögzítő" style="ellipse;whiteSpace=wrap;html=1;" parent="1" vertex="1">
          <mxGeometry x="1090" y="-2690" width="110" height="70" as="geometry" />
        </mxCell>
        <mxCell id="tt8EQiCurOOYMXS-OqXN-98" value="" style="edgeStyle=orthogonalEdgeStyle;rounded=0;orthogonalLoop=1;jettySize=auto;html=1;" parent="1" source="tt8EQiCurOOYMXS-OqXN-3" target="tt8EQiCurOOYMXS-OqXN-87" edge="1">
          <mxGeometry relative="1" as="geometry">
            <Array as="points">
              <mxPoint x="200" y="-2275" />
              <mxPoint x="200" y="-2275" />
            </Array>
          </mxGeometry>
        </mxCell>
        <mxCell id="tt8EQiCurOOYMXS-OqXN-3" value="Hibajegy" style="ellipse;whiteSpace=wrap;html=1;" parent="1" vertex="1">
          <mxGeometry x="255" y="-2315" width="120" height="80" as="geometry" />
        </mxCell>
        <mxCell id="tt8EQiCurOOYMXS-OqXN-27" value="" style="edgeStyle=orthogonalEdgeStyle;rounded=0;orthogonalLoop=1;jettySize=auto;html=1;" parent="1" source="tt8EQiCurOOYMXS-OqXN-4" target="tt8EQiCurOOYMXS-OqXN-15" edge="1">
          <mxGeometry relative="1" as="geometry">
            <Array as="points">
              <mxPoint x="315" y="-2010" />
              <mxPoint x="330" y="-2010" />
            </Array>
          </mxGeometry>
        </mxCell>
        <mxCell id="tt8EQiCurOOYMXS-OqXN-28" value="" style="edgeStyle=orthogonalEdgeStyle;rounded=0;orthogonalLoop=1;jettySize=auto;html=1;" parent="1" source="tt8EQiCurOOYMXS-OqXN-4" target="tt8EQiCurOOYMXS-OqXN-14" edge="1">
          <mxGeometry relative="1" as="geometry">
            <Array as="points">
              <mxPoint x="315" y="-2010" />
              <mxPoint x="230" y="-2010" />
            </Array>
          </mxGeometry>
        </mxCell>
        <mxCell id="dCjEWwNUUrZOYM1XWYGP-7" value="" style="edgeStyle=orthogonalEdgeStyle;rounded=0;orthogonalLoop=1;jettySize=auto;html=1;" parent="1" source="tt8EQiCurOOYMXS-OqXN-4" target="tt8EQiCurOOYMXS-OqXN-16" edge="1">
          <mxGeometry relative="1" as="geometry">
            <Array as="points">
              <mxPoint x="315" y="-2010" />
              <mxPoint x="435" y="-2010" />
            </Array>
          </mxGeometry>
        </mxCell>
        <mxCell id="tt8EQiCurOOYMXS-OqXN-4" value="Kapcs. adatok" style="ellipse;whiteSpace=wrap;html=1;" parent="1" vertex="1">
          <mxGeometry x="270" y="-2145" width="90" height="70" as="geometry" />
        </mxCell>
        <mxCell id="dCjEWwNUUrZOYM1XWYGP-39" style="edgeStyle=orthogonalEdgeStyle;rounded=0;orthogonalLoop=1;jettySize=auto;html=1;exitX=0.5;exitY=1;exitDx=0;exitDy=0;entryX=0.5;entryY=0;entryDx=0;entryDy=0;" parent="1" source="tt8EQiCurOOYMXS-OqXN-5" target="dCjEWwNUUrZOYM1XWYGP-1" edge="1">
          <mxGeometry relative="1" as="geometry">
            <Array as="points">
              <mxPoint x="105" y="-2050" />
              <mxPoint x="105" y="-2050" />
            </Array>
          </mxGeometry>
        </mxCell>
        <mxCell id="tt8EQiCurOOYMXS-OqXN-5" value="Dátum" style="ellipse;whiteSpace=wrap;html=1;" parent="1" vertex="1">
          <mxGeometry x="60" y="-2150" width="90" height="70" as="geometry" />
        </mxCell>
        <mxCell id="dCjEWwNUUrZOYM1XWYGP-41" value="" style="edgeStyle=orthogonalEdgeStyle;rounded=0;orthogonalLoop=1;jettySize=auto;html=1;" parent="1" edge="1">
          <mxGeometry relative="1" as="geometry">
            <mxPoint x="204.94" y="-2080" as="sourcePoint" />
            <mxPoint x="204.94" y="-2060" as="targetPoint" />
            <Array as="points">
              <mxPoint x="199.94" y="-2020" />
              <mxPoint x="199.94" y="-2020" />
            </Array>
          </mxGeometry>
        </mxCell>
        <mxCell id="tt8EQiCurOOYMXS-OqXN-12" value="JegyID" style="ellipse;whiteSpace=wrap;html=1;" parent="1" vertex="1">
          <mxGeometry x="160" y="-2150" width="90" height="70" as="geometry" />
        </mxCell>
        <mxCell id="tt8EQiCurOOYMXS-OqXN-13" value="Magenta 1 kedv." style="ellipse;whiteSpace=wrap;html=1;" parent="1" vertex="1">
          <mxGeometry x="165" y="-2145" width="80" height="60" as="geometry" />
        </mxCell>
        <mxCell id="dCjEWwNUUrZOYM1XWYGP-47" value="" style="edgeStyle=orthogonalEdgeStyle;rounded=0;orthogonalLoop=1;jettySize=auto;html=1;exitX=0.5;exitY=1;exitDx=0;exitDy=0;" parent="1" source="tt8EQiCurOOYMXS-OqXN-14" edge="1">
          <mxGeometry relative="1" as="geometry">
            <mxPoint x="224.94" y="-1900" as="sourcePoint" />
            <mxPoint x="224.9912820512822" y="-1880" as="targetPoint" />
          </mxGeometry>
        </mxCell>
        <mxCell id="tt8EQiCurOOYMXS-OqXN-14" value="Email cím" style="ellipse;whiteSpace=wrap;html=1;" parent="1" vertex="1">
          <mxGeometry x="180" y="-1980" width="90" height="70" as="geometry" />
        </mxCell>
        <mxCell id="dCjEWwNUUrZOYM1XWYGP-48" value="" style="edgeStyle=orthogonalEdgeStyle;rounded=0;orthogonalLoop=1;jettySize=auto;html=1;exitX=0.5;exitY=1;exitDx=0;exitDy=0;" parent="1" source="tt8EQiCurOOYMXS-OqXN-15" edge="1">
          <mxGeometry relative="1" as="geometry">
            <mxPoint x="329.94" y="-1900" as="sourcePoint" />
            <mxPoint x="329.9912820512822" y="-1880" as="targetPoint" />
          </mxGeometry>
        </mxCell>
        <mxCell id="tt8EQiCurOOYMXS-OqXN-15" value="Telefonszám" style="ellipse;whiteSpace=wrap;html=1;" parent="1" vertex="1">
          <mxGeometry x="285" y="-1980" width="90" height="70" as="geometry" />
        </mxCell>
        <mxCell id="dCjEWwNUUrZOYM1XWYGP-44" value="" style="edgeStyle=orthogonalEdgeStyle;rounded=0;orthogonalLoop=1;jettySize=auto;html=1;exitX=0.5;exitY=1;exitDx=0;exitDy=0;" parent="1" source="tt8EQiCurOOYMXS-OqXN-16" edge="1">
          <mxGeometry relative="1" as="geometry">
            <mxPoint x="434.94" y="-1900" as="sourcePoint" />
            <mxPoint x="434.9912820512822" y="-1880" as="targetPoint" />
          </mxGeometry>
        </mxCell>
        <mxCell id="tt8EQiCurOOYMXS-OqXN-16" value="Név" style="ellipse;whiteSpace=wrap;html=1;" parent="1" vertex="1">
          <mxGeometry x="390" y="-1980" width="90" height="70" as="geometry" />
        </mxCell>
        <mxCell id="dCjEWwNUUrZOYM1XWYGP-8" value="" style="edgeStyle=orthogonalEdgeStyle;rounded=0;orthogonalLoop=1;jettySize=auto;html=1;" parent="1" source="tt8EQiCurOOYMXS-OqXN-32" target="dCjEWwNUUrZOYM1XWYGP-2" edge="1">
          <mxGeometry relative="1" as="geometry" />
        </mxCell>
        <mxCell id="tt8EQiCurOOYMXS-OqXN-32" value="Javitási ár" style="ellipse;whiteSpace=wrap;html=1;" parent="1" vertex="1">
          <mxGeometry x="375" y="-2145" width="90" height="70" as="geometry" />
        </mxCell>
        <mxCell id="tt8EQiCurOOYMXS-OqXN-39" value="TV" style="ellipse;whiteSpace=wrap;html=1;" parent="1" vertex="1">
          <mxGeometry x="565" y="-2310" width="120" height="80" as="geometry" />
        </mxCell>
        <mxCell id="tt8EQiCurOOYMXS-OqXN-43" value="Javitás Dátuma" style="ellipse;whiteSpace=wrap;html=1;" parent="1" vertex="1">
          <mxGeometry x="580" y="-2150" width="90" height="70" as="geometry" />
        </mxCell>
        <mxCell id="tt8EQiCurOOYMXS-OqXN-58" value="Telefon" style="ellipse;whiteSpace=wrap;html=1;" parent="1" vertex="1">
          <mxGeometry x="1163" y="-2315" width="120" height="80" as="geometry" />
        </mxCell>
        <mxCell id="dCjEWwNUUrZOYM1XWYGP-22" value="" style="edgeStyle=orthogonalEdgeStyle;rounded=0;orthogonalLoop=1;jettySize=auto;html=1;exitX=0.5;exitY=1;exitDx=0;exitDy=0;" parent="1" source="tt8EQiCurOOYMXS-OqXN-59" edge="1">
          <mxGeometry relative="1" as="geometry">
            <mxPoint x="1154.92" y="-2070" as="sourcePoint" />
            <mxPoint x="1154.976" y="-2040" as="targetPoint" />
          </mxGeometry>
        </mxCell>
        <mxCell id="tt8EQiCurOOYMXS-OqXN-59" value="Javitás Dátuma" style="ellipse;whiteSpace=wrap;html=1;" parent="1" vertex="1">
          <mxGeometry x="1110" y="-2150" width="90" height="70" as="geometry" />
        </mxCell>
        <mxCell id="tt8EQiCurOOYMXS-OqXN-64" value="Telefon hiba paraméter" style="ellipse;whiteSpace=wrap;html=1;" parent="1" vertex="1">
          <mxGeometry x="1433.75" y="-2315" width="120" height="80" as="geometry" />
        </mxCell>
        <mxCell id="dCjEWwNUUrZOYM1XWYGP-26" value="" style="edgeStyle=orthogonalEdgeStyle;rounded=0;orthogonalLoop=1;jettySize=auto;html=1;exitX=0.5;exitY=1;exitDx=0;exitDy=0;" parent="1" source="tt8EQiCurOOYMXS-OqXN-65" edge="1">
          <mxGeometry relative="1" as="geometry">
            <mxPoint x="1431.67" y="-2070" as="sourcePoint" />
            <mxPoint x="1431.7179999999998" y="-2040" as="targetPoint" />
          </mxGeometry>
        </mxCell>
        <mxCell id="tt8EQiCurOOYMXS-OqXN-65" value="Hiba leírása" style="ellipse;whiteSpace=wrap;html=1;" parent="1" vertex="1">
          <mxGeometry x="1386.75" y="-2150" width="90" height="70" as="geometry" />
        </mxCell>
        <mxCell id="dCjEWwNUUrZOYM1XWYGP-28" value="" style="edgeStyle=orthogonalEdgeStyle;rounded=0;orthogonalLoop=1;jettySize=auto;html=1;exitX=0.5;exitY=1;exitDx=0;exitDy=0;" parent="1" edge="1">
          <mxGeometry relative="1" as="geometry">
            <mxPoint x="1561.75" y="-2080" as="sourcePoint" />
            <mxPoint x="1561.7179999999998" y="-2040" as="targetPoint" />
          </mxGeometry>
        </mxCell>
        <mxCell id="tt8EQiCurOOYMXS-OqXN-66" value="Milyen hangot hall" style="ellipse;whiteSpace=wrap;html=1;" parent="1" vertex="1">
          <mxGeometry x="1516.75" y="-2150" width="90" height="70" as="geometry" />
        </mxCell>
        <mxCell id="RQaGqbZlLXjAmg8DzYQn-16" value="" style="edgeStyle=orthogonalEdgeStyle;rounded=0;orthogonalLoop=1;jettySize=auto;html=1;" edge="1" parent="1" source="tt8EQiCurOOYMXS-OqXN-70" target="tt8EQiCurOOYMXS-OqXN-71">
          <mxGeometry relative="1" as="geometry" />
        </mxCell>
        <mxCell id="tt8EQiCurOOYMXS-OqXN-70" value="Internet" style="ellipse;whiteSpace=wrap;html=1;" parent="1" vertex="1">
          <mxGeometry x="1660" y="-2315" width="120" height="80" as="geometry" />
        </mxCell>
        <mxCell id="tt8EQiCurOOYMXS-OqXN-71" value="Javitás dátuma" style="ellipse;whiteSpace=wrap;html=1;" parent="1" vertex="1">
          <mxGeometry x="1675" y="-2205" width="90" height="70" as="geometry" />
        </mxCell>
        <mxCell id="tt8EQiCurOOYMXS-OqXN-76" value="Internet hiba paraméter" style="ellipse;whiteSpace=wrap;html=1;" parent="1" vertex="1">
          <mxGeometry x="2080" y="-2310" width="120" height="80" as="geometry" />
        </mxCell>
        <mxCell id="tt8EQiCurOOYMXS-OqXN-77" value="Hiba leírása" style="ellipse;whiteSpace=wrap;html=1;" parent="1" vertex="1">
          <mxGeometry x="2040" y="-2140" width="90" height="70" as="geometry" />
        </mxCell>
        <mxCell id="dCjEWwNUUrZOYM1XWYGP-36" value="" style="edgeStyle=orthogonalEdgeStyle;rounded=0;orthogonalLoop=1;jettySize=auto;html=1;exitX=0.5;exitY=1;exitDx=0;exitDy=0;" parent="1" source="tt8EQiCurOOYMXS-OqXN-78" edge="1">
          <mxGeometry relative="1" as="geometry">
            <mxPoint x="2204.92" y="-2055" as="sourcePoint" />
            <mxPoint x="2204.9759999999997" y="-2030" as="targetPoint" />
          </mxGeometry>
        </mxCell>
        <mxCell id="tt8EQiCurOOYMXS-OqXN-78" value="Milyen ledek világítanak" style="ellipse;whiteSpace=wrap;html=1;" parent="1" vertex="1">
          <mxGeometry x="2160" y="-2140" width="90" height="70" as="geometry" />
        </mxCell>
        <mxCell id="tt8EQiCurOOYMXS-OqXN-82" value="TV hiba paraméter" style="ellipse;whiteSpace=wrap;html=1;" parent="1" vertex="1">
          <mxGeometry x="900" y="-2315" width="120" height="80" as="geometry" />
        </mxCell>
        <mxCell id="dCjEWwNUUrZOYM1XWYGP-18" value="" style="edgeStyle=orthogonalEdgeStyle;rounded=0;orthogonalLoop=1;jettySize=auto;html=1;exitX=0.5;exitY=1;exitDx=0;exitDy=0;" parent="1" source="tt8EQiCurOOYMXS-OqXN-83" edge="1">
          <mxGeometry relative="1" as="geometry">
            <mxPoint x="894.92" y="-2060" as="sourcePoint" />
            <mxPoint x="894.976" y="-2035" as="targetPoint" />
          </mxGeometry>
        </mxCell>
        <mxCell id="tt8EQiCurOOYMXS-OqXN-83" value="Hibakód" style="ellipse;whiteSpace=wrap;html=1;" parent="1" vertex="1">
          <mxGeometry x="850" y="-2145" width="90" height="70" as="geometry" />
        </mxCell>
        <mxCell id="dCjEWwNUUrZOYM1XWYGP-20" value="" style="edgeStyle=orthogonalEdgeStyle;rounded=0;orthogonalLoop=1;jettySize=auto;html=1;exitX=0.5;exitY=1;exitDx=0;exitDy=0;" parent="1" source="tt8EQiCurOOYMXS-OqXN-84" edge="1">
          <mxGeometry relative="1" as="geometry">
            <mxPoint x="1024.92" y="-2060" as="sourcePoint" />
            <mxPoint x="1024.976" y="-2035" as="targetPoint" />
          </mxGeometry>
        </mxCell>
        <mxCell id="tt8EQiCurOOYMXS-OqXN-84" value="Hiba leírása" style="ellipse;whiteSpace=wrap;html=1;" parent="1" vertex="1">
          <mxGeometry x="980" y="-2145" width="90" height="70" as="geometry" />
        </mxCell>
        <mxCell id="tt8EQiCurOOYMXS-OqXN-87" value="JegyID" style="rhombus;whiteSpace=wrap;html=1;" parent="1" vertex="1">
          <mxGeometry x="-20" y="-2315" width="80" height="80" as="geometry" />
        </mxCell>
        <mxCell id="tt8EQiCurOOYMXS-OqXN-92" value="Szolgáltatás" style="rhombus;whiteSpace=wrap;html=1;" parent="1" vertex="1">
          <mxGeometry x="446.25" y="-2310" width="80" height="80" as="geometry" />
        </mxCell>
        <mxCell id="tt8EQiCurOOYMXS-OqXN-93" value="Szolgáltatás" style="rhombus;whiteSpace=wrap;html=1;" parent="1" vertex="1">
          <mxGeometry x="1050" y="-2315" width="80" height="80" as="geometry" />
        </mxCell>
        <mxCell id="tt8EQiCurOOYMXS-OqXN-94" value="Szolgáltatás" style="rhombus;whiteSpace=wrap;html=1;" parent="1" vertex="1">
          <mxGeometry x="1573" y="-2315" width="80" height="80" as="geometry" />
        </mxCell>
        <mxCell id="tt8EQiCurOOYMXS-OqXN-110" value="Paraméter" style="rhombus;whiteSpace=wrap;html=1;" parent="1" vertex="1">
          <mxGeometry x="780" y="-2210" width="80" height="80" as="geometry" />
        </mxCell>
        <mxCell id="tt8EQiCurOOYMXS-OqXN-113" value="Paraméter" style="rhombus;whiteSpace=wrap;html=1;" parent="1" vertex="1">
          <mxGeometry x="1330" y="-2215" width="80" height="80" as="geometry" />
        </mxCell>
        <mxCell id="tt8EQiCurOOYMXS-OqXN-117" value="Paraméter" style="rhombus;whiteSpace=wrap;html=1;" parent="1" vertex="1">
          <mxGeometry x="1960" y="-2280" width="80" height="80" as="geometry" />
        </mxCell>
        <mxCell id="tt8EQiCurOOYMXS-OqXN-123" value="MT ID" style="rhombus;whiteSpace=wrap;html=1;" parent="1" vertex="1">
          <mxGeometry x="693.75" y="-2210" width="80" height="80" as="geometry" />
        </mxCell>
        <mxCell id="tt8EQiCurOOYMXS-OqXN-124" value="Tel.Szám" style="rhombus;whiteSpace=wrap;html=1;" parent="1" vertex="1">
          <mxGeometry x="1241" y="-2215" width="80" height="80" as="geometry" />
        </mxCell>
        <mxCell id="tt8EQiCurOOYMXS-OqXN-125" value="InternetID" style="rhombus;whiteSpace=wrap;html=1;" parent="1" vertex="1">
          <mxGeometry x="1830" y="-2280" width="80" height="80" as="geometry" />
        </mxCell>
        <mxCell id="dCjEWwNUUrZOYM1XWYGP-1" value="" style="rounded=0;whiteSpace=wrap;html=1;" parent="1" vertex="1">
          <mxGeometry x="93.75" y="-2060" width="22.5" height="40" as="geometry" />
        </mxCell>
        <mxCell id="dCjEWwNUUrZOYM1XWYGP-2" value="" style="rounded=0;whiteSpace=wrap;html=1;" parent="1" vertex="1">
          <mxGeometry x="408.75" y="-2060" width="22.5" height="40" as="geometry" />
        </mxCell>
        <mxCell id="dCjEWwNUUrZOYM1XWYGP-4" value="" style="rounded=0;whiteSpace=wrap;html=1;" parent="1" vertex="1">
          <mxGeometry x="193.75" y="-2060" width="22.5" height="40" as="geometry" />
        </mxCell>
        <mxCell id="dCjEWwNUUrZOYM1XWYGP-12" value="" style="rounded=0;whiteSpace=wrap;html=1;" parent="1" vertex="1">
          <mxGeometry x="613.75" y="-2050" width="22.5" height="40" as="geometry" />
        </mxCell>
        <mxCell id="dCjEWwNUUrZOYM1XWYGP-17" value="" style="rounded=0;whiteSpace=wrap;html=1;" parent="1" vertex="1">
          <mxGeometry x="883.75" y="-2050" width="22.5" height="40" as="geometry" />
        </mxCell>
        <mxCell id="dCjEWwNUUrZOYM1XWYGP-19" value="" style="rounded=0;whiteSpace=wrap;html=1;" parent="1" vertex="1">
          <mxGeometry x="1013.75" y="-2050" width="22.5" height="40" as="geometry" />
        </mxCell>
        <mxCell id="dCjEWwNUUrZOYM1XWYGP-21" value="" style="rounded=0;whiteSpace=wrap;html=1;" parent="1" vertex="1">
          <mxGeometry x="1143.75" y="-2050" width="22.5" height="40" as="geometry" />
        </mxCell>
        <mxCell id="dCjEWwNUUrZOYM1XWYGP-25" value="" style="rounded=0;whiteSpace=wrap;html=1;" parent="1" vertex="1">
          <mxGeometry x="1420.5" y="-2050" width="22.5" height="40" as="geometry" />
        </mxCell>
        <mxCell id="dCjEWwNUUrZOYM1XWYGP-27" value="" style="rounded=0;whiteSpace=wrap;html=1;" parent="1" vertex="1">
          <mxGeometry x="1550.5" y="-2050" width="22.5" height="40" as="geometry" />
        </mxCell>
        <mxCell id="dCjEWwNUUrZOYM1XWYGP-29" value="" style="rounded=0;whiteSpace=wrap;html=1;" parent="1" vertex="1">
          <mxGeometry x="1708.75" y="-2060" width="22.5" height="40" as="geometry" />
        </mxCell>
        <mxCell id="dCjEWwNUUrZOYM1XWYGP-33" value="" style="rounded=0;whiteSpace=wrap;html=1;" parent="1" vertex="1">
          <mxGeometry x="2073.75" y="-2045" width="22.5" height="40" as="geometry" />
        </mxCell>
        <mxCell id="dCjEWwNUUrZOYM1XWYGP-35" value="" style="rounded=0;whiteSpace=wrap;html=1;" parent="1" vertex="1">
          <mxGeometry x="2193.75" y="-2045" width="22.5" height="40" as="geometry" />
        </mxCell>
        <mxCell id="dCjEWwNUUrZOYM1XWYGP-43" value="" style="rounded=0;whiteSpace=wrap;html=1;" parent="1" vertex="1">
          <mxGeometry x="423.75" y="-1890" width="22.5" height="40" as="geometry" />
        </mxCell>
        <mxCell id="dCjEWwNUUrZOYM1XWYGP-45" value="" style="rounded=0;whiteSpace=wrap;html=1;" parent="1" vertex="1">
          <mxGeometry x="318.75" y="-1890" width="22.5" height="40" as="geometry" />
        </mxCell>
        <mxCell id="dCjEWwNUUrZOYM1XWYGP-46" value="" style="rounded=0;whiteSpace=wrap;html=1;" parent="1" vertex="1">
          <mxGeometry x="213.75" y="-1890" width="22.5" height="40" as="geometry" />
        </mxCell>
        <mxCell id="RQaGqbZlLXjAmg8DzYQn-1" value="" style="endArrow=none;html=1;rounded=0;entryX=0.5;entryY=1;entryDx=0;entryDy=0;exitX=0.5;exitY=0;exitDx=0;exitDy=0;" edge="1" parent="1" source="tt8EQiCurOOYMXS-OqXN-82" target="tt8EQiCurOOYMXS-OqXN-2">
          <mxGeometry width="50" height="50" relative="1" as="geometry">
            <mxPoint x="920" y="-2290" as="sourcePoint" />
            <mxPoint x="970" y="-2340" as="targetPoint" />
          </mxGeometry>
        </mxCell>
        <mxCell id="RQaGqbZlLXjAmg8DzYQn-2" value="" style="endArrow=none;html=1;rounded=0;entryX=0.5;entryY=1;entryDx=0;entryDy=0;exitX=0.5;exitY=0;exitDx=0;exitDy=0;" edge="1" parent="1" source="tt8EQiCurOOYMXS-OqXN-58" target="tt8EQiCurOOYMXS-OqXN-2">
          <mxGeometry width="50" height="50" relative="1" as="geometry">
            <mxPoint x="920" y="-2290" as="sourcePoint" />
            <mxPoint x="970" y="-2340" as="targetPoint" />
          </mxGeometry>
        </mxCell>
        <mxCell id="RQaGqbZlLXjAmg8DzYQn-3" value="" style="endArrow=none;html=1;rounded=0;entryX=0.5;entryY=1;entryDx=0;entryDy=0;exitX=0.5;exitY=0;exitDx=0;exitDy=0;" edge="1" parent="1" source="tt8EQiCurOOYMXS-OqXN-64" target="tt8EQiCurOOYMXS-OqXN-2">
          <mxGeometry width="50" height="50" relative="1" as="geometry">
            <mxPoint x="920" y="-2290" as="sourcePoint" />
            <mxPoint x="970" y="-2340" as="targetPoint" />
          </mxGeometry>
        </mxCell>
        <mxCell id="RQaGqbZlLXjAmg8DzYQn-4" value="" style="endArrow=none;html=1;rounded=0;entryX=0.5;entryY=1;entryDx=0;entryDy=0;exitX=0.5;exitY=0;exitDx=0;exitDy=0;" edge="1" parent="1" source="tt8EQiCurOOYMXS-OqXN-70" target="tt8EQiCurOOYMXS-OqXN-2">
          <mxGeometry width="50" height="50" relative="1" as="geometry">
            <mxPoint x="920" y="-2290" as="sourcePoint" />
            <mxPoint x="970" y="-2340" as="targetPoint" />
          </mxGeometry>
        </mxCell>
        <mxCell id="RQaGqbZlLXjAmg8DzYQn-5" value="" style="endArrow=none;html=1;rounded=0;entryX=0.5;entryY=1;entryDx=0;entryDy=0;exitX=0.5;exitY=0;exitDx=0;exitDy=0;" edge="1" parent="1" source="tt8EQiCurOOYMXS-OqXN-76" target="tt8EQiCurOOYMXS-OqXN-2">
          <mxGeometry width="50" height="50" relative="1" as="geometry">
            <mxPoint x="920" y="-2290" as="sourcePoint" />
            <mxPoint x="970" y="-2340" as="targetPoint" />
          </mxGeometry>
        </mxCell>
        <mxCell id="RQaGqbZlLXjAmg8DzYQn-6" value="" style="endArrow=none;html=1;rounded=0;entryX=0.5;entryY=1;entryDx=0;entryDy=0;exitX=0.5;exitY=0;exitDx=0;exitDy=0;" edge="1" parent="1" source="tt8EQiCurOOYMXS-OqXN-39" target="tt8EQiCurOOYMXS-OqXN-2">
          <mxGeometry width="50" height="50" relative="1" as="geometry">
            <mxPoint x="920" y="-2290" as="sourcePoint" />
            <mxPoint x="970" y="-2340" as="targetPoint" />
          </mxGeometry>
        </mxCell>
        <mxCell id="RQaGqbZlLXjAmg8DzYQn-7" value="" style="endArrow=none;html=1;rounded=0;entryX=0.5;entryY=1;entryDx=0;entryDy=0;exitX=0.5;exitY=0;exitDx=0;exitDy=0;" edge="1" parent="1" source="tt8EQiCurOOYMXS-OqXN-3" target="tt8EQiCurOOYMXS-OqXN-2">
          <mxGeometry width="50" height="50" relative="1" as="geometry">
            <mxPoint x="920" y="-2290" as="sourcePoint" />
            <mxPoint x="970" y="-2340" as="targetPoint" />
          </mxGeometry>
        </mxCell>
        <mxCell id="RQaGqbZlLXjAmg8DzYQn-15" value="" style="endArrow=none;html=1;rounded=0;exitX=0;exitY=0.5;exitDx=0;exitDy=0;entryX=1;entryY=0.5;entryDx=0;entryDy=0;" edge="1" parent="1" source="tt8EQiCurOOYMXS-OqXN-125" target="tt8EQiCurOOYMXS-OqXN-70">
          <mxGeometry width="50" height="50" relative="1" as="geometry">
            <mxPoint x="1690" y="-2190" as="sourcePoint" />
            <mxPoint x="1740" y="-2240" as="targetPoint" />
          </mxGeometry>
        </mxCell>
        <mxCell id="RQaGqbZlLXjAmg8DzYQn-18" value="" style="endArrow=classic;html=1;rounded=0;entryX=0.5;entryY=0;entryDx=0;entryDy=0;exitX=0.5;exitY=1;exitDx=0;exitDy=0;" edge="1" parent="1" source="tt8EQiCurOOYMXS-OqXN-76" target="tt8EQiCurOOYMXS-OqXN-77">
          <mxGeometry width="50" height="50" relative="1" as="geometry">
            <mxPoint x="1860" y="-2140" as="sourcePoint" />
            <mxPoint x="1910" y="-2190" as="targetPoint" />
          </mxGeometry>
        </mxCell>
        <mxCell id="RQaGqbZlLXjAmg8DzYQn-19" value="" style="endArrow=classic;html=1;rounded=0;entryX=0.5;entryY=0;entryDx=0;entryDy=0;" edge="1" parent="1" target="tt8EQiCurOOYMXS-OqXN-78">
          <mxGeometry width="50" height="50" relative="1" as="geometry">
            <mxPoint x="2140" y="-2230" as="sourcePoint" />
            <mxPoint x="1910" y="-2190" as="targetPoint" />
          </mxGeometry>
        </mxCell>
        <mxCell id="RQaGqbZlLXjAmg8DzYQn-20" value="" style="endArrow=none;html=1;rounded=0;entryX=0.5;entryY=1;entryDx=0;entryDy=0;exitX=0.5;exitY=0;exitDx=0;exitDy=0;" edge="1" parent="1" source="dCjEWwNUUrZOYM1XWYGP-33" target="tt8EQiCurOOYMXS-OqXN-77">
          <mxGeometry width="50" height="50" relative="1" as="geometry">
            <mxPoint x="1860" y="-2140" as="sourcePoint" />
            <mxPoint x="1910" y="-2190" as="targetPoint" />
          </mxGeometry>
        </mxCell>
        <mxCell id="RQaGqbZlLXjAmg8DzYQn-21" value="" style="endArrow=none;dashed=1;html=1;dashPattern=1 3;strokeWidth=2;rounded=0;entryX=0.5;entryY=1;entryDx=0;entryDy=0;exitX=0.5;exitY=1;exitDx=0;exitDy=0;" edge="1" parent="1" source="tt8EQiCurOOYMXS-OqXN-117" target="tt8EQiCurOOYMXS-OqXN-125">
          <mxGeometry width="50" height="50" relative="1" as="geometry">
            <mxPoint x="1860" y="-2140" as="sourcePoint" />
            <mxPoint x="1910" y="-2190" as="targetPoint" />
            <Array as="points">
              <mxPoint x="2000" y="-2120" />
              <mxPoint x="1870" y="-2120" />
            </Array>
          </mxGeometry>
        </mxCell>
        <mxCell id="RQaGqbZlLXjAmg8DzYQn-22" value="" style="endArrow=classic;html=1;rounded=0;entryX=0.5;entryY=1;entryDx=0;entryDy=0;" edge="1" parent="1" target="tt8EQiCurOOYMXS-OqXN-117">
          <mxGeometry width="50" height="50" relative="1" as="geometry">
            <mxPoint x="2000" y="-2190" as="sourcePoint" />
            <mxPoint x="1910" y="-2190" as="targetPoint" />
            <Array as="points" />
          </mxGeometry>
        </mxCell>
        <mxCell id="RQaGqbZlLXjAmg8DzYQn-26" value="" style="endArrow=none;html=1;rounded=0;entryX=-0.01;entryY=0.548;entryDx=0;entryDy=0;exitX=1;exitY=0.5;exitDx=0;exitDy=0;entryPerimeter=0;" edge="1" parent="1" source="tt8EQiCurOOYMXS-OqXN-117" target="tt8EQiCurOOYMXS-OqXN-76">
          <mxGeometry width="50" height="50" relative="1" as="geometry">
            <mxPoint x="1810" y="-2140" as="sourcePoint" />
            <mxPoint x="1860" y="-2190" as="targetPoint" />
          </mxGeometry>
        </mxCell>
        <mxCell id="RQaGqbZlLXjAmg8DzYQn-27" value="" style="endArrow=classic;html=1;rounded=0;entryX=0.5;entryY=0;entryDx=0;entryDy=0;exitX=0.5;exitY=1;exitDx=0;exitDy=0;" edge="1" parent="1" source="tt8EQiCurOOYMXS-OqXN-3" target="tt8EQiCurOOYMXS-OqXN-5">
          <mxGeometry width="50" height="50" relative="1" as="geometry">
            <mxPoint x="550" y="-2170" as="sourcePoint" />
            <mxPoint x="600" y="-2220" as="targetPoint" />
          </mxGeometry>
        </mxCell>
        <mxCell id="RQaGqbZlLXjAmg8DzYQn-28" value="" style="endArrow=classic;html=1;rounded=0;entryX=0.5;entryY=0;entryDx=0;entryDy=0;exitX=0.5;exitY=1;exitDx=0;exitDy=0;" edge="1" parent="1" source="tt8EQiCurOOYMXS-OqXN-3" target="tt8EQiCurOOYMXS-OqXN-13">
          <mxGeometry width="50" height="50" relative="1" as="geometry">
            <mxPoint x="550" y="-2170" as="sourcePoint" />
            <mxPoint x="600" y="-2220" as="targetPoint" />
          </mxGeometry>
        </mxCell>
        <mxCell id="RQaGqbZlLXjAmg8DzYQn-29" value="" style="endArrow=classic;html=1;rounded=0;entryX=0.5;entryY=0;entryDx=0;entryDy=0;exitX=0.5;exitY=1;exitDx=0;exitDy=0;" edge="1" parent="1" source="tt8EQiCurOOYMXS-OqXN-3" target="tt8EQiCurOOYMXS-OqXN-4">
          <mxGeometry width="50" height="50" relative="1" as="geometry">
            <mxPoint x="550" y="-2170" as="sourcePoint" />
            <mxPoint x="600" y="-2220" as="targetPoint" />
          </mxGeometry>
        </mxCell>
        <mxCell id="RQaGqbZlLXjAmg8DzYQn-30" value="" style="endArrow=classic;html=1;rounded=0;entryX=0.5;entryY=0;entryDx=0;entryDy=0;exitX=0.5;exitY=1;exitDx=0;exitDy=0;" edge="1" parent="1" source="tt8EQiCurOOYMXS-OqXN-3" target="tt8EQiCurOOYMXS-OqXN-32">
          <mxGeometry width="50" height="50" relative="1" as="geometry">
            <mxPoint x="550" y="-2170" as="sourcePoint" />
            <mxPoint x="600" y="-2220" as="targetPoint" />
          </mxGeometry>
        </mxCell>
        <mxCell id="RQaGqbZlLXjAmg8DzYQn-32" value="" style="endArrow=classic;html=1;rounded=0;entryX=0.5;entryY=0;entryDx=0;entryDy=0;exitX=0.5;exitY=1;exitDx=0;exitDy=0;" edge="1" parent="1" source="tt8EQiCurOOYMXS-OqXN-39" target="tt8EQiCurOOYMXS-OqXN-43">
          <mxGeometry width="50" height="50" relative="1" as="geometry">
            <mxPoint x="993.75" y="-2170" as="sourcePoint" />
            <mxPoint x="1043.75" y="-2220" as="targetPoint" />
          </mxGeometry>
        </mxCell>
        <mxCell id="RQaGqbZlLXjAmg8DzYQn-33" value="" style="endArrow=classic;html=1;rounded=0;entryX=0.5;entryY=0;entryDx=0;entryDy=0;exitX=0.5;exitY=1;exitDx=0;exitDy=0;" edge="1" parent="1" source="tt8EQiCurOOYMXS-OqXN-82" target="tt8EQiCurOOYMXS-OqXN-83">
          <mxGeometry width="50" height="50" relative="1" as="geometry">
            <mxPoint x="970" y="-2170" as="sourcePoint" />
            <mxPoint x="1020" y="-2220" as="targetPoint" />
          </mxGeometry>
        </mxCell>
        <mxCell id="RQaGqbZlLXjAmg8DzYQn-34" value="" style="endArrow=classic;html=1;rounded=0;entryX=0.5;entryY=0;entryDx=0;entryDy=0;exitX=0.5;exitY=1;exitDx=0;exitDy=0;" edge="1" parent="1" source="tt8EQiCurOOYMXS-OqXN-82" target="tt8EQiCurOOYMXS-OqXN-84">
          <mxGeometry width="50" height="50" relative="1" as="geometry">
            <mxPoint x="960" y="-2230" as="sourcePoint" />
            <mxPoint x="1020" y="-2220" as="targetPoint" />
          </mxGeometry>
        </mxCell>
        <mxCell id="RQaGqbZlLXjAmg8DzYQn-35" value="" style="endArrow=classic;html=1;rounded=0;entryX=0.5;entryY=0;entryDx=0;entryDy=0;exitX=0.5;exitY=1;exitDx=0;exitDy=0;" edge="1" parent="1" source="tt8EQiCurOOYMXS-OqXN-58">
          <mxGeometry width="50" height="50" relative="1" as="geometry">
            <mxPoint x="1220" y="-2220" as="sourcePoint" />
            <mxPoint x="1160" y="-2145" as="targetPoint" />
          </mxGeometry>
        </mxCell>
        <mxCell id="RQaGqbZlLXjAmg8DzYQn-36" value="" style="endArrow=classic;html=1;rounded=0;exitX=0.5;exitY=1;exitDx=0;exitDy=0;entryX=0.5;entryY=0;entryDx=0;entryDy=0;" edge="1" parent="1" source="tt8EQiCurOOYMXS-OqXN-64" target="tt8EQiCurOOYMXS-OqXN-65">
          <mxGeometry width="50" height="50" relative="1" as="geometry">
            <mxPoint x="1003.75" y="-2170" as="sourcePoint" />
            <mxPoint x="1353.75" y="-2180" as="targetPoint" />
          </mxGeometry>
        </mxCell>
        <mxCell id="RQaGqbZlLXjAmg8DzYQn-37" value="" style="endArrow=classic;html=1;rounded=0;entryX=0.5;entryY=0;entryDx=0;entryDy=0;exitX=0.5;exitY=1;exitDx=0;exitDy=0;" edge="1" parent="1" source="tt8EQiCurOOYMXS-OqXN-64">
          <mxGeometry width="50" height="50" relative="1" as="geometry">
            <mxPoint x="1003.75" y="-2170" as="sourcePoint" />
            <mxPoint x="1561.75" y="-2150" as="targetPoint" />
          </mxGeometry>
        </mxCell>
        <mxCell id="RQaGqbZlLXjAmg8DzYQn-38" value="" style="endArrow=none;html=1;rounded=0;entryX=0.5;entryY=1;entryDx=0;entryDy=0;exitX=0.5;exitY=0;exitDx=0;exitDy=0;" edge="1" parent="1" source="dCjEWwNUUrZOYM1XWYGP-12" target="tt8EQiCurOOYMXS-OqXN-43">
          <mxGeometry width="50" height="50" relative="1" as="geometry">
            <mxPoint x="753.75" y="-2060" as="sourcePoint" />
            <mxPoint x="803.75" y="-2110" as="targetPoint" />
          </mxGeometry>
        </mxCell>
        <mxCell id="RQaGqbZlLXjAmg8DzYQn-39" value="" style="endArrow=none;html=1;rounded=0;exitX=0.5;exitY=0;exitDx=0;exitDy=0;" edge="1" parent="1" source="tt8EQiCurOOYMXS-OqXN-123" target="tt8EQiCurOOYMXS-OqXN-39">
          <mxGeometry width="50" height="50" relative="1" as="geometry">
            <mxPoint x="753.75" y="-2180" as="sourcePoint" />
            <mxPoint x="803.75" y="-2230" as="targetPoint" />
          </mxGeometry>
        </mxCell>
        <mxCell id="RQaGqbZlLXjAmg8DzYQn-40" value="" style="endArrow=none;html=1;rounded=0;entryX=0.081;entryY=0.754;entryDx=0;entryDy=0;entryPerimeter=0;exitX=0.5;exitY=0;exitDx=0;exitDy=0;" edge="1" parent="1" source="tt8EQiCurOOYMXS-OqXN-110" target="tt8EQiCurOOYMXS-OqXN-82">
          <mxGeometry width="50" height="50" relative="1" as="geometry">
            <mxPoint x="730" y="-2180" as="sourcePoint" />
            <mxPoint x="780" y="-2230" as="targetPoint" />
          </mxGeometry>
        </mxCell>
        <mxCell id="RQaGqbZlLXjAmg8DzYQn-41" value="" style="endArrow=none;dashed=1;html=1;dashPattern=1 3;strokeWidth=2;rounded=0;entryX=0.5;entryY=1;entryDx=0;entryDy=0;exitX=0.5;exitY=1;exitDx=0;exitDy=0;" edge="1" parent="1" source="tt8EQiCurOOYMXS-OqXN-110" target="tt8EQiCurOOYMXS-OqXN-123">
          <mxGeometry width="50" height="50" relative="1" as="geometry">
            <mxPoint x="820" y="-2060" as="sourcePoint" />
            <mxPoint x="780" y="-2170" as="targetPoint" />
            <Array as="points">
              <mxPoint x="820" y="-2060" />
              <mxPoint x="734" y="-2060" />
            </Array>
          </mxGeometry>
        </mxCell>
        <mxCell id="RQaGqbZlLXjAmg8DzYQn-42" value="" style="endArrow=classic;html=1;rounded=0;" edge="1" parent="1">
          <mxGeometry width="50" height="50" relative="1" as="geometry">
            <mxPoint x="820" y="-2120" as="sourcePoint" />
            <mxPoint x="820" y="-2130" as="targetPoint" />
          </mxGeometry>
        </mxCell>
        <mxCell id="RQaGqbZlLXjAmg8DzYQn-44" value="" style="endArrow=none;html=1;rounded=0;exitX=0.5;exitY=0;exitDx=0;exitDy=0;" edge="1" parent="1" source="tt8EQiCurOOYMXS-OqXN-124" target="tt8EQiCurOOYMXS-OqXN-58">
          <mxGeometry width="50" height="50" relative="1" as="geometry">
            <mxPoint x="1280" y="-2180" as="sourcePoint" />
            <mxPoint x="1330" y="-2230" as="targetPoint" />
          </mxGeometry>
        </mxCell>
        <mxCell id="RQaGqbZlLXjAmg8DzYQn-45" value="" style="endArrow=none;dashed=1;html=1;dashPattern=1 3;strokeWidth=2;rounded=0;exitX=0.5;exitY=1;exitDx=0;exitDy=0;entryX=0.5;entryY=1;entryDx=0;entryDy=0;" edge="1" parent="1" source="tt8EQiCurOOYMXS-OqXN-124" target="tt8EQiCurOOYMXS-OqXN-113">
          <mxGeometry width="50" height="50" relative="1" as="geometry">
            <mxPoint x="1280" y="-2180" as="sourcePoint" />
            <mxPoint x="1360" y="-2090" as="targetPoint" />
            <Array as="points">
              <mxPoint x="1281" y="-2050" />
              <mxPoint x="1370" y="-2050" />
            </Array>
          </mxGeometry>
        </mxCell>
        <mxCell id="RQaGqbZlLXjAmg8DzYQn-46" value="" style="endArrow=classic;html=1;rounded=0;entryX=0.5;entryY=1;entryDx=0;entryDy=0;" edge="1" parent="1" target="tt8EQiCurOOYMXS-OqXN-113">
          <mxGeometry width="50" height="50" relative="1" as="geometry">
            <mxPoint x="1370" y="-2120" as="sourcePoint" />
            <mxPoint x="1330" y="-2230" as="targetPoint" />
          </mxGeometry>
        </mxCell>
        <mxCell id="RQaGqbZlLXjAmg8DzYQn-47" value="" style="endArrow=none;html=1;rounded=0;exitX=0.5;exitY=0;exitDx=0;exitDy=0;entryX=0;entryY=0.5;entryDx=0;entryDy=0;" edge="1" parent="1" source="tt8EQiCurOOYMXS-OqXN-113" target="tt8EQiCurOOYMXS-OqXN-64">
          <mxGeometry width="50" height="50" relative="1" as="geometry">
            <mxPoint x="1280" y="-2240" as="sourcePoint" />
            <mxPoint x="1330" y="-2290" as="targetPoint" />
          </mxGeometry>
        </mxCell>
        <mxCell id="RQaGqbZlLXjAmg8DzYQn-48" value="" style="endArrow=none;html=1;rounded=0;exitX=0;exitY=0.5;exitDx=0;exitDy=0;entryX=1;entryY=0.5;entryDx=0;entryDy=0;" edge="1" parent="1" source="tt8EQiCurOOYMXS-OqXN-39" target="tt8EQiCurOOYMXS-OqXN-92">
          <mxGeometry width="50" height="50" relative="1" as="geometry">
            <mxPoint x="663.75" y="-2170" as="sourcePoint" />
            <mxPoint x="530" y="-2270" as="targetPoint" />
          </mxGeometry>
        </mxCell>
        <mxCell id="RQaGqbZlLXjAmg8DzYQn-49" value="" style="endArrow=none;html=1;rounded=0;entryX=0;entryY=0.5;entryDx=0;entryDy=0;exitX=1;exitY=0.5;exitDx=0;exitDy=0;" edge="1" parent="1" source="tt8EQiCurOOYMXS-OqXN-93" target="tt8EQiCurOOYMXS-OqXN-58">
          <mxGeometry width="50" height="50" relative="1" as="geometry">
            <mxPoint x="640" y="-2170" as="sourcePoint" />
            <mxPoint x="690" y="-2220" as="targetPoint" />
          </mxGeometry>
        </mxCell>
        <mxCell id="RQaGqbZlLXjAmg8DzYQn-50" value="" style="endArrow=none;html=1;rounded=0;entryX=0;entryY=0.5;entryDx=0;entryDy=0;exitX=1;exitY=0.5;exitDx=0;exitDy=0;" edge="1" parent="1" source="tt8EQiCurOOYMXS-OqXN-94" target="tt8EQiCurOOYMXS-OqXN-70">
          <mxGeometry width="50" height="50" relative="1" as="geometry">
            <mxPoint x="1550" y="-2170" as="sourcePoint" />
            <mxPoint x="1600" y="-2220" as="targetPoint" />
          </mxGeometry>
        </mxCell>
        <mxCell id="RQaGqbZlLXjAmg8DzYQn-51" value="" style="endArrow=none;dashed=1;html=1;dashPattern=1 3;strokeWidth=2;rounded=0;entryX=0.5;entryY=1;entryDx=0;entryDy=0;exitX=0.5;exitY=1;exitDx=0;exitDy=0;" edge="1" parent="1" source="tt8EQiCurOOYMXS-OqXN-87" target="tt8EQiCurOOYMXS-OqXN-92">
          <mxGeometry width="50" height="50" relative="1" as="geometry">
            <mxPoint x="440" y="-2170" as="sourcePoint" />
            <mxPoint x="490" y="-2220" as="targetPoint" />
            <Array as="points">
              <mxPoint x="20" y="-1780" />
              <mxPoint x="486" y="-1780" />
            </Array>
          </mxGeometry>
        </mxCell>
        <mxCell id="RQaGqbZlLXjAmg8DzYQn-52" value="" style="endArrow=none;dashed=1;html=1;dashPattern=1 3;strokeWidth=2;rounded=0;entryX=0.5;entryY=1;entryDx=0;entryDy=0;" edge="1" parent="1" target="tt8EQiCurOOYMXS-OqXN-93">
          <mxGeometry width="50" height="50" relative="1" as="geometry">
            <mxPoint x="490" y="-1780" as="sourcePoint" />
            <mxPoint x="1120" y="-2160" as="targetPoint" />
            <Array as="points">
              <mxPoint x="1090" y="-1780" />
            </Array>
          </mxGeometry>
        </mxCell>
        <mxCell id="RQaGqbZlLXjAmg8DzYQn-53" value="" style="endArrow=none;dashed=1;html=1;dashPattern=1 3;strokeWidth=2;rounded=0;entryX=0.5;entryY=1;entryDx=0;entryDy=0;" edge="1" parent="1" target="tt8EQiCurOOYMXS-OqXN-94">
          <mxGeometry width="50" height="50" relative="1" as="geometry">
            <mxPoint x="1090" y="-1780" as="sourcePoint" />
            <mxPoint x="1490" y="-2080" as="targetPoint" />
            <Array as="points">
              <mxPoint x="1613" y="-1780" />
            </Array>
          </mxGeometry>
        </mxCell>
        <mxCell id="RQaGqbZlLXjAmg8DzYQn-54" value="" style="endArrow=classic;html=1;rounded=0;entryX=0.5;entryY=1;entryDx=0;entryDy=0;" edge="1" parent="1" target="tt8EQiCurOOYMXS-OqXN-87">
          <mxGeometry width="50" height="50" relative="1" as="geometry">
            <mxPoint x="20" y="-2220" as="sourcePoint" />
            <mxPoint x="310" y="-2080" as="targetPoint" />
          </mxGeometry>
        </mxCell>
        <mxCell id="RQaGqbZlLXjAmg8DzYQn-56" value="" style="endArrow=none;html=1;rounded=0;entryX=0.5;entryY=1;entryDx=0;entryDy=0;exitX=0.5;exitY=0;exitDx=0;exitDy=0;" edge="1" parent="1" source="dCjEWwNUUrZOYM1XWYGP-29" target="tt8EQiCurOOYMXS-OqXN-71">
          <mxGeometry width="50" height="50" relative="1" as="geometry">
            <mxPoint x="1270" y="-2050" as="sourcePoint" />
            <mxPoint x="1320" y="-2100" as="targetPoint" />
          </mxGeometry>
        </mxCell>
      </root>
    </mxGraphModel>
  </diagram>
</mxfile>
